<mxfile host="app.diagrams.net" modified="2023-04-13T08:38:41.406Z" agent="Mozilla/5.0 (Macintosh; Intel Mac OS X 10_15_7) AppleWebKit/537.36 (KHTML, like Gecko) Chrome/112.0.0.0 Safari/537.36" etag="tuquEor9f3TAPLvvaGzm" version="21.1.5" type="github">
  <diagram id="prtHgNgQTEPvFCAcTncT" name="Page-1">
    <mxGraphModel dx="1183" dy="708" grid="1" gridSize="10" guides="1" tooltips="1" connect="1" arrows="1" fold="1" page="1" pageScale="1" pageWidth="827" pageHeight="1169" math="0" shadow="0">
      <root>
        <mxCell id="0" />
        <mxCell id="1" parent="0" />
        <mxCell id="7FgpKWq0Rpcai-oL9zW3-53" value="Opt" style="shape=umlFrame;tabWidth=110;tabHeight=30;tabPosition=left;html=1;boundedLbl=1;labelInHeader=1;width=80;height=15;shadow=0;dashed=1;labelBackgroundColor=none;labelBorderColor=none;fontSize=12;fontColor=default;fillColor=none;swimlaneFillColor=none;movable=1;resizable=1;rotatable=1;deletable=1;editable=1;locked=0;connectable=1;container=0;" vertex="1" parent="1">
          <mxGeometry x="160" y="183" width="410" height="337" as="geometry" />
        </mxCell>
        <mxCell id="7FgpKWq0Rpcai-oL9zW3-2" value="用户" style="shape=umlLifeline;perimeter=lifelinePerimeter;container=1;collapsible=0;recursiveResize=0;rounded=0;shadow=0;strokeWidth=1;size=30;fillColor=#dae8fc;strokeColor=#6c8ebf;" vertex="1" parent="1">
          <mxGeometry x="30" y="90" width="100" height="670" as="geometry" />
        </mxCell>
        <mxCell id="7FgpKWq0Rpcai-oL9zW3-3" value="" style="points=[];perimeter=orthogonalPerimeter;rounded=0;shadow=0;strokeWidth=1;fillColor=#dae8fc;strokeColor=#6c8ebf;" vertex="1" parent="7FgpKWq0Rpcai-oL9zW3-2">
          <mxGeometry x="45" y="70" width="10" height="480" as="geometry" />
        </mxCell>
        <mxCell id="7FgpKWq0Rpcai-oL9zW3-80" style="edgeStyle=elbowEdgeStyle;rounded=0;orthogonalLoop=1;jettySize=auto;html=1;labelBackgroundColor=none;fontSize=12;fontColor=default;startArrow=none;startFill=0;endArrow=classic;endFill=1;strokeColor=#000000;strokeWidth=1;dashed=1;exitX=0.2;exitY=1;exitDx=0;exitDy=0;exitPerimeter=0;" edge="1" parent="7FgpKWq0Rpcai-oL9zW3-2" source="7FgpKWq0Rpcai-oL9zW3-10">
          <mxGeometry relative="1" as="geometry">
            <mxPoint x="230" y="240" as="sourcePoint" />
            <mxPoint x="55" y="240" as="targetPoint" />
          </mxGeometry>
        </mxCell>
        <mxCell id="7FgpKWq0Rpcai-oL9zW3-81" value="302,&amp;nbsp; ptoken" style="edgeLabel;html=1;align=center;verticalAlign=middle;resizable=0;points=[];fontSize=12;fontColor=default;" vertex="1" connectable="0" parent="7FgpKWq0Rpcai-oL9zW3-80">
          <mxGeometry x="-0.078" y="1" relative="1" as="geometry">
            <mxPoint x="-9" y="-9" as="offset" />
          </mxGeometry>
        </mxCell>
        <mxCell id="7FgpKWq0Rpcai-oL9zW3-4" value="业务系统" style="shape=umlLifeline;perimeter=lifelinePerimeter;container=1;collapsible=0;recursiveResize=0;rounded=0;shadow=0;strokeWidth=1;size=30;fillColor=#f8cecc;strokeColor=#b85450;" vertex="1" parent="1">
          <mxGeometry x="227" y="90" width="90" height="670" as="geometry" />
        </mxCell>
        <mxCell id="7FgpKWq0Rpcai-oL9zW3-5" value="" style="points=[];perimeter=orthogonalPerimeter;rounded=0;shadow=0;strokeWidth=1;fillColor=#f8cecc;strokeColor=#b85450;" vertex="1" parent="7FgpKWq0Rpcai-oL9zW3-4">
          <mxGeometry x="40" y="70" width="10" height="110" as="geometry" />
        </mxCell>
        <mxCell id="7FgpKWq0Rpcai-oL9zW3-75" value="" style="points=[];perimeter=orthogonalPerimeter;rounded=0;shadow=0;strokeWidth=1;fillColor=#f8cecc;strokeColor=#b85450;" vertex="1" parent="7FgpKWq0Rpcai-oL9zW3-4">
          <mxGeometry x="40" y="287" width="10" height="123" as="geometry" />
        </mxCell>
        <mxCell id="7FgpKWq0Rpcai-oL9zW3-99" value="" style="points=[];perimeter=orthogonalPerimeter;rounded=0;shadow=0;strokeWidth=1;fillColor=#f8cecc;strokeColor=#b85450;" vertex="1" parent="7FgpKWq0Rpcai-oL9zW3-4">
          <mxGeometry x="40" y="470" width="10" height="80" as="geometry" />
        </mxCell>
        <mxCell id="7FgpKWq0Rpcai-oL9zW3-6" value="搜狗SSO" style="shape=umlLifeline;perimeter=lifelinePerimeter;container=1;collapsible=0;recursiveResize=0;rounded=0;shadow=0;strokeWidth=1;size=30;fillColor=#d5e8d4;strokeColor=#82b366;" vertex="1" parent="1">
          <mxGeometry x="454" y="90" width="136" height="660" as="geometry" />
        </mxCell>
        <mxCell id="7FgpKWq0Rpcai-oL9zW3-10" value="" style="points=[];perimeter=orthogonalPerimeter;rounded=0;shadow=0;strokeWidth=1;fillColor=#d5e8d4;strokeColor=#82b366;" vertex="1" parent="7FgpKWq0Rpcai-oL9zW3-6">
          <mxGeometry x="62" y="195" width="10" height="45" as="geometry" />
        </mxCell>
        <mxCell id="7FgpKWq0Rpcai-oL9zW3-86" value="" style="points=[];perimeter=orthogonalPerimeter;rounded=0;shadow=0;strokeWidth=1;fillColor=#d5e8d4;strokeColor=#82b366;" vertex="1" parent="7FgpKWq0Rpcai-oL9zW3-6">
          <mxGeometry x="62" y="303.57" width="10" height="45" as="geometry" />
        </mxCell>
        <mxCell id="7FgpKWq0Rpcai-oL9zW3-103" style="edgeStyle=elbowEdgeStyle;rounded=0;orthogonalLoop=1;jettySize=auto;html=1;labelBackgroundColor=none;fontSize=12;fontColor=default;startArrow=none;startFill=0;endArrow=classic;endFill=1;strokeColor=#000000;strokeWidth=1;dashed=1;exitX=0.2;exitY=1;exitDx=0;exitDy=0;exitPerimeter=0;entryX=0.952;entryY=0.626;entryDx=0;entryDy=0;entryPerimeter=0;" edge="1" parent="7FgpKWq0Rpcai-oL9zW3-6" target="7FgpKWq0Rpcai-oL9zW3-99">
          <mxGeometry relative="1" as="geometry">
            <mxPoint x="279" y="520" as="sourcePoint" />
            <mxPoint x="-156" y="520" as="targetPoint" />
          </mxGeometry>
        </mxCell>
        <mxCell id="7FgpKWq0Rpcai-oL9zW3-104" value="返回鉴权结果" style="edgeLabel;html=1;align=center;verticalAlign=middle;resizable=0;points=[];fontSize=12;fontColor=default;" vertex="1" connectable="0" parent="7FgpKWq0Rpcai-oL9zW3-103">
          <mxGeometry x="-0.078" y="1" relative="1" as="geometry">
            <mxPoint x="-9" y="-9" as="offset" />
          </mxGeometry>
        </mxCell>
        <mxCell id="7FgpKWq0Rpcai-oL9zW3-18" style="edgeStyle=orthogonalEdgeStyle;rounded=0;orthogonalLoop=1;jettySize=auto;html=1;exitX=0.986;exitY=0.002;exitDx=0;exitDy=0;exitPerimeter=0;entryX=0.159;entryY=0.002;entryDx=0;entryDy=0;entryPerimeter=0;" edge="1" parent="1" source="7FgpKWq0Rpcai-oL9zW3-3" target="7FgpKWq0Rpcai-oL9zW3-5">
          <mxGeometry relative="1" as="geometry">
            <Array as="points">
              <mxPoint x="160" y="160" />
              <mxPoint x="160" y="160" />
            </Array>
          </mxGeometry>
        </mxCell>
        <mxCell id="7FgpKWq0Rpcai-oL9zW3-19" value="1.访问系统" style="edgeLabel;html=1;align=center;verticalAlign=middle;resizable=0;points=[];fontSize=12;" vertex="1" connectable="0" parent="7FgpKWq0Rpcai-oL9zW3-18">
          <mxGeometry x="-0.0785" y="1" relative="1" as="geometry">
            <mxPoint x="4" y="-9" as="offset" />
          </mxGeometry>
        </mxCell>
        <mxCell id="7FgpKWq0Rpcai-oL9zW3-22" value="盘古平台" style="shape=umlLifeline;perimeter=lifelinePerimeter;container=1;collapsible=0;recursiveResize=0;rounded=0;shadow=0;strokeWidth=1;size=30;fillColor=#b0e3e6;strokeColor=#0e8088;" vertex="1" parent="1">
          <mxGeometry x="690" y="90" width="100" height="690" as="geometry" />
        </mxCell>
        <mxCell id="7FgpKWq0Rpcai-oL9zW3-100" value="" style="points=[];perimeter=orthogonalPerimeter;rounded=0;shadow=0;strokeWidth=1;fillColor=#b0e3e6;strokeColor=#0e8088;" vertex="1" parent="7FgpKWq0Rpcai-oL9zW3-22">
          <mxGeometry x="45" y="465" width="10" height="60" as="geometry" />
        </mxCell>
        <mxCell id="7FgpKWq0Rpcai-oL9zW3-52" value="搜狗侧盘古鉴权时序图" style="text;html=1;strokeColor=none;fillColor=none;align=center;verticalAlign=middle;whiteSpace=wrap;rounded=0;fontSize=20;" vertex="1" parent="1">
          <mxGeometry x="356" y="25" width="252" height="41" as="geometry" />
        </mxCell>
        <mxCell id="7FgpKWq0Rpcai-oL9zW3-83" style="edgeStyle=orthogonalEdgeStyle;rounded=0;orthogonalLoop=1;jettySize=auto;html=1;entryX=-0.117;entryY=0.066;entryDx=0;entryDy=0;entryPerimeter=0;" edge="1" parent="1" target="7FgpKWq0Rpcai-oL9zW3-75">
          <mxGeometry relative="1" as="geometry">
            <Array as="points" />
            <mxPoint x="90" y="385" as="sourcePoint" />
            <mxPoint x="260" y="380" as="targetPoint" />
          </mxGeometry>
        </mxCell>
        <mxCell id="7FgpKWq0Rpcai-oL9zW3-84" value="1.2. 浏览器重定向，ptoken=xxx" style="edgeLabel;html=1;align=center;verticalAlign=middle;resizable=0;points=[];fontSize=12;" vertex="1" connectable="0" parent="7FgpKWq0Rpcai-oL9zW3-83">
          <mxGeometry x="-0.0785" y="1" relative="1" as="geometry">
            <mxPoint x="4" y="-9" as="offset" />
          </mxGeometry>
        </mxCell>
        <mxCell id="7FgpKWq0Rpcai-oL9zW3-78" style="edgeStyle=elbowEdgeStyle;rounded=0;orthogonalLoop=1;jettySize=auto;html=1;labelBackgroundColor=none;fontSize=12;fontColor=default;startArrow=none;startFill=0;endArrow=classic;endFill=1;strokeColor=#000000;strokeWidth=1;dashed=1;exitX=-0.2;exitY=0.818;exitDx=0;exitDy=0;exitPerimeter=0;" edge="1" parent="1" source="7FgpKWq0Rpcai-oL9zW3-5">
          <mxGeometry relative="1" as="geometry">
            <mxPoint x="314.01" y="249" as="sourcePoint" />
            <mxPoint x="90" y="249" as="targetPoint" />
            <Array as="points">
              <mxPoint x="120" y="269" />
            </Array>
          </mxGeometry>
        </mxCell>
        <mxCell id="7FgpKWq0Rpcai-oL9zW3-79" value="302" style="edgeLabel;html=1;align=center;verticalAlign=middle;resizable=0;points=[];fontSize=12;fontColor=default;" vertex="1" connectable="0" parent="7FgpKWq0Rpcai-oL9zW3-78">
          <mxGeometry x="-0.078" y="1" relative="1" as="geometry">
            <mxPoint x="-9" y="-9" as="offset" />
          </mxGeometry>
        </mxCell>
        <mxCell id="7FgpKWq0Rpcai-oL9zW3-68" style="edgeStyle=orthogonalEdgeStyle;rounded=0;orthogonalLoop=1;jettySize=auto;html=1;exitX=0.986;exitY=0.002;exitDx=0;exitDy=0;exitPerimeter=0;entryX=0;entryY=0.233;entryDx=0;entryDy=0;entryPerimeter=0;" edge="1" parent="1">
          <mxGeometry relative="1" as="geometry">
            <Array as="points">
              <mxPoint x="85" y="288" />
            </Array>
            <mxPoint x="85" y="289" as="sourcePoint" />
            <mxPoint x="518" y="288.97" as="targetPoint" />
          </mxGeometry>
        </mxCell>
        <mxCell id="7FgpKWq0Rpcai-oL9zW3-69" value="1.1.浏览器重定向, 用户扫码" style="edgeLabel;html=1;align=center;verticalAlign=middle;resizable=0;points=[];fontSize=12;" vertex="1" connectable="0" parent="7FgpKWq0Rpcai-oL9zW3-68">
          <mxGeometry x="-0.0785" y="1" relative="1" as="geometry">
            <mxPoint x="4" y="-9" as="offset" />
          </mxGeometry>
        </mxCell>
        <mxCell id="7FgpKWq0Rpcai-oL9zW3-87" style="edgeStyle=orthogonalEdgeStyle;rounded=0;orthogonalLoop=1;jettySize=auto;html=1;exitX=0.986;exitY=0.002;exitDx=0;exitDy=0;exitPerimeter=0;entryX=-0.18;entryY=0.134;entryDx=0;entryDy=0;entryPerimeter=0;" edge="1" parent="1" target="7FgpKWq0Rpcai-oL9zW3-86">
          <mxGeometry relative="1" as="geometry">
            <Array as="points">
              <mxPoint x="500" y="399" />
            </Array>
            <mxPoint x="280" y="400" as="sourcePoint" />
            <mxPoint x="500" y="400" as="targetPoint" />
          </mxGeometry>
        </mxCell>
        <mxCell id="7FgpKWq0Rpcai-oL9zW3-88" value="1.3.验证ptoken" style="edgeLabel;html=1;align=center;verticalAlign=middle;resizable=0;points=[];fontSize=12;" vertex="1" connectable="0" parent="7FgpKWq0Rpcai-oL9zW3-87">
          <mxGeometry x="-0.0785" y="1" relative="1" as="geometry">
            <mxPoint x="4" y="-9" as="offset" />
          </mxGeometry>
        </mxCell>
        <mxCell id="7FgpKWq0Rpcai-oL9zW3-92" value="&lt;meta charset=&quot;utf-8&quot;&gt;&lt;span style=&quot;color: rgb(0, 0, 0); font-family: Helvetica; font-size: 12px; font-style: normal; font-variant-ligatures: normal; font-variant-caps: normal; font-weight: 400; letter-spacing: normal; orphans: 2; text-align: center; text-indent: 0px; text-transform: none; widows: 2; word-spacing: 0px; -webkit-text-stroke-width: 0px; background-color: rgb(251, 251, 251); text-decoration-thickness: initial; text-decoration-style: initial; text-decoration-color: initial; float: none; display: inline !important;&quot;&gt;未登录&lt;/span&gt;" style="text;whiteSpace=wrap;html=1;" vertex="1" parent="1">
          <mxGeometry x="167" y="198" width="40" height="20" as="geometry" />
        </mxCell>
        <mxCell id="7FgpKWq0Rpcai-oL9zW3-94" style="edgeStyle=elbowEdgeStyle;rounded=0;orthogonalLoop=1;jettySize=auto;html=1;labelBackgroundColor=none;fontSize=12;fontColor=default;startArrow=none;startFill=0;endArrow=classic;endFill=1;strokeColor=#000000;strokeWidth=1;dashed=1;exitX=0.08;exitY=0.898;exitDx=0;exitDy=0;exitPerimeter=0;" edge="1" parent="1" source="7FgpKWq0Rpcai-oL9zW3-86">
          <mxGeometry relative="1" as="geometry">
            <mxPoint x="500" y="435" as="sourcePoint" />
            <mxPoint x="280" y="434" as="targetPoint" />
          </mxGeometry>
        </mxCell>
        <mxCell id="7FgpKWq0Rpcai-oL9zW3-95" value="1.4.验证成功，返回企微用户名" style="edgeLabel;html=1;align=center;verticalAlign=middle;resizable=0;points=[];fontSize=12;fontColor=default;" vertex="1" connectable="0" parent="7FgpKWq0Rpcai-oL9zW3-94">
          <mxGeometry x="-0.078" y="1" relative="1" as="geometry">
            <mxPoint x="-9" y="-9" as="offset" />
          </mxGeometry>
        </mxCell>
        <mxCell id="7FgpKWq0Rpcai-oL9zW3-97" style="edgeStyle=elbowEdgeStyle;rounded=0;orthogonalLoop=1;jettySize=auto;html=1;labelBackgroundColor=none;fontSize=12;fontColor=default;startArrow=none;startFill=0;endArrow=classic;endFill=1;strokeColor=#000000;strokeWidth=1;exitX=1.233;exitY=0.542;exitDx=0;exitDy=0;exitPerimeter=0;" edge="1" parent="1">
          <mxGeometry relative="1" as="geometry">
            <mxPoint x="277" y="488.96" as="targetPoint" />
            <mxPoint x="277.33000000000015" y="459.99999999999994" as="sourcePoint" />
            <Array as="points">
              <mxPoint x="335" y="454.96" />
            </Array>
          </mxGeometry>
        </mxCell>
        <mxCell id="7FgpKWq0Rpcai-oL9zW3-98" value="1.5.保存登录态到session" style="edgeLabel;html=1;align=center;verticalAlign=middle;resizable=0;points=[];fontSize=12;fontColor=default;" vertex="1" connectable="0" parent="7FgpKWq0Rpcai-oL9zW3-97">
          <mxGeometry x="-0.5186" relative="1" as="geometry">
            <mxPoint x="41" y="13" as="offset" />
          </mxGeometry>
        </mxCell>
        <mxCell id="7FgpKWq0Rpcai-oL9zW3-101" style="edgeStyle=orthogonalEdgeStyle;rounded=0;orthogonalLoop=1;jettySize=auto;html=1;exitX=0.986;exitY=0.002;exitDx=0;exitDy=0;exitPerimeter=0;entryX=-0.371;entryY=0.093;entryDx=0;entryDy=0;entryPerimeter=0;" edge="1" parent="1" target="7FgpKWq0Rpcai-oL9zW3-100">
          <mxGeometry relative="1" as="geometry">
            <Array as="points" />
            <mxPoint x="280" y="561" as="sourcePoint" />
            <mxPoint x="713" y="560.97" as="targetPoint" />
          </mxGeometry>
        </mxCell>
        <mxCell id="7FgpKWq0Rpcai-oL9zW3-102" value="通过 proxy.pangu.backend.sec.sogou调用鉴权接口" style="edgeLabel;html=1;align=center;verticalAlign=middle;resizable=0;points=[];fontSize=12;" vertex="1" connectable="0" parent="7FgpKWq0Rpcai-oL9zW3-101">
          <mxGeometry x="-0.0785" y="1" relative="1" as="geometry">
            <mxPoint x="4" y="-9" as="offset" />
          </mxGeometry>
        </mxCell>
        <mxCell id="7FgpKWq0Rpcai-oL9zW3-113" style="edgeStyle=elbowEdgeStyle;rounded=0;orthogonalLoop=1;jettySize=auto;html=1;labelBackgroundColor=none;fontSize=12;fontColor=default;startArrow=none;startFill=0;endArrow=classic;endFill=1;strokeColor=#000000;strokeWidth=1;dashed=1;entryX=0.952;entryY=0.626;entryDx=0;entryDy=0;entryPerimeter=0;" edge="1" parent="1">
          <mxGeometry relative="1" as="geometry">
            <mxPoint x="260" y="630" as="sourcePoint" />
            <mxPoint x="90" y="630" as="targetPoint" />
          </mxGeometry>
        </mxCell>
        <mxCell id="7FgpKWq0Rpcai-oL9zW3-114" value="根据鉴权结果返回页面" style="edgeLabel;html=1;align=center;verticalAlign=middle;resizable=0;points=[];fontSize=12;fontColor=default;" vertex="1" connectable="0" parent="7FgpKWq0Rpcai-oL9zW3-113">
          <mxGeometry x="-0.078" y="1" relative="1" as="geometry">
            <mxPoint x="-9" y="-9" as="offset" />
          </mxGeometry>
        </mxCell>
      </root>
    </mxGraphModel>
  </diagram>
</mxfile>
